<svg width="48" height="24" viewBox="0 0 48 24" fill="none" xmlns="http://www.w3.org/2000/svg">
<g clip-path="url(#clip0_2_18)">
<mask id="mask0_2_18" style="mask-type:luminance" maskUnits="userSpaceOnUse" x="-202" y="-55" width="455" height="462">
<path d="M-201.708 406.785H252.788V-54.9711H-201.708V406.785Z" fill="white"/>
</mask>
<g mask="url(#mask0_2_18)">
<path d="M24.907 20.6197C23.9794 20.5569 22.9097 20.3916 22.066 20.1434C21.908 20.0969 21.2537 19.8525 21.0872 19.775C18.15 18.3927 16.1038 15.3752 16.1038 11.8744C16.1038 7.07284 19.9488 3.16176 24.678 3.16176C29.3651 3.16176 33.1842 7.00613 33.2499 11.7534H36.3474C36.2817 5.27167 31.0739 0.0186146 24.678 0.0186146C18.2439 0.0186146 13.0071 5.33605 13.0071 11.8744C13.0071 16.382 15.5022 20.3024 19.1556 22.3053C19.8152 22.6598 20.762 23.0251 21.0834 23.1252C22.1248 23.4401 23.4029 23.6496 24.5406 23.7372C24.9269 23.7667 26.276 23.7822 26.6692 23.7838H48V20.6492H26.7051C26.4218 20.6492 25.1842 20.6383 24.907 20.6197ZM26.7051 15.6979C26.4799 15.6979 25.3018 15.6901 25.0842 15.6715C24.7154 15.6397 24.181 15.5838 23.8374 15.5039C23.4495 15.3984 23.0853 15.2588 22.9212 15.1673C21.7706 14.5351 20.9864 13.2986 20.9864 11.8744C20.9864 9.80254 22.6379 8.12237 24.678 8.12237C26.6753 8.12237 28.2993 9.7366 28.3642 11.7534H31.3403C31.2777 8.06885 28.3214 5.09946 24.678 5.09946C20.9941 5.09946 18.008 8.13245 18.008 11.8744C18.008 14.5134 19.4969 16.7924 21.6652 17.9086C21.9989 18.1072 22.6265 18.3151 22.8051 18.3624C23.4174 18.5261 24.2397 18.6378 24.907 18.6874C25.1537 18.7084 26.3615 18.7177 26.6165 18.7192V18.7239H47.9992V15.6979H26.7051ZM11.0983 23.7721H7.98015V3.16874H3.42356V-2.36748e-06H11.0983V23.7721ZM0 4.75195V7.7989H3.42356V23.7721H6.41955V4.75195H0Z" fill="#D91920"/>
</g>
</g>
<defs>
<clipPath id="clip0_2_18">
<rect width="48" height="23.7838" fill="white"/>
</clipPath>
</defs>
</svg>
