<svg viewBox="0 0 930 300" xmlns="http://www.w3.org/2000/svg" xmlns:xlink="http://www.w3.org/1999/xlink"><clipPath id="a"><path d="m0 0h930v300h-930z"/></clipPath><clipPath id="b"><path d="m828.64 85.23a113.78 113.78 0 1 1 -113.78 113.77 113.77 113.77 0 0 1 113.78-113.77z"/></clipPath><clipPath id="c"><circle cx="360.85" cy="271.66" r="38.37"/></clipPath><path d="m0 0h930v300h-930z" fill="#6486d4"/><g clip-path="url(#a)"><path d="m389.07 302.28 2.69-32.49-24.76-6.2a112.45 112.45 0 0 0 -14.45-45.06l16.52-19.43-21.07-24.86-21.88 13.1a112.38 112.38 0 0 0 -42.07-21.66l-2.05-25.41-32.48-2.69-6.2 24.72a112.47 112.47 0 0 0 -45.06 14.45l-19.43-16.52-24.83 21.07 13.1 21.88a112.31 112.31 0 0 0 -21.66 42.07l-25.44 2.06-2.69 32.49 24.72 6.2a112.36 112.36 0 0 0 14.45 45.06l-16.48 19.42 21.07 24.87 21.88-13.1a112.39 112.39 0 0 0 42.05 21.66l2.05 25.4 32.49 2.69 6.21-24.72a112.38 112.38 0 0 0 45.06-14.45l19.43 16.52 24.87-21.07-13.11-21.87a112.5 112.5 0 0 0 21.66-42.07zm-209.55-33.69a75.27 75.27 0 1 1 68.81 81.22 75.27 75.27 0 0 1 -68.81-81.22zm0 0" fill="#759aff"/><path d="m367 263.59a112.45 112.45 0 0 0 -14.45-45.06l16.52-19.43-21.07-24.86-21.88 13.1a112.38 112.38 0 0 0 -42.07-21.66l-2.05-25.41-17.09-1.41-5 60.88h.85a75.27 75.27 0 1 1 -12.42 150l-.84-.09-5 60.87 17.04 1.48 6.21-24.72a112.38 112.38 0 0 0 45.06-14.45l19.43 16.52 24.87-21.07-13.11-21.87a112.5 112.5 0 0 0 21.66-42.07l25.4-2.05 2.69-32.49zm0 0" fill="#638dff"/><path d="m330.06 281a75.78 75.78 0 1 1 -69.27-81.77 75.78 75.78 0 0 1 69.27 81.77zm0 0" fill="#8fadff"/><path d="m260.8 199.27h-.85l-12.5 151 .85.1a75.78 75.78 0 0 0 12.5-151zm0 0" fill="#8fadff"/><path d="m288.66 261.71a32.92 32.92 0 1 1 -30.09-35.52 32.92 32.92 0 0 1 30.09 35.52zm0 0" fill="#638dff"/><path d="m258.57 226.19h-.85l-5.43 65.57.84.09a32.92 32.92 0 0 0 5.43-65.61zm0 0" fill="#4a7bff"/><path d="m197.86 325.09a75.78 75.78 0 0 0 104.33 8.63 56.4 56.4 0 0 0 -104.33-8.63zm0 0" fill="#638dff"/><path d="m302.19 333.72a56.41 56.41 0 0 0 -49.24-39.59h-.85l-4.65 56.15.84.09a75.5 75.5 0 0 0 53.89-16.59zm0 0" fill="#4a7bff"/><path d="m722.91-128.52-10.52 36.76 27 12.79a131.9 131.9 0 0 0 6.33 55.14l-23.43 18.58 18.55 33.43 28.16-10.07a131.82 131.82 0 0 0 43.45 34.54l-3.45 29.7 36.76 10.52 12.79-27a131.92 131.92 0 0 0 55.15-6.32l18.59 23.45 33.43-18.55-10.08-28.2a131.74 131.74 0 0 0 34.54-43.45l29.7 3.44 10.52-36.76-27-12.79a131.8 131.8 0 0 0 -6.32-55.15l23.42-18.54-18.5-33.45-28.17 10.07a131.83 131.83 0 0 0 -43.45-34.54l3.45-29.7-36.83-10.52-12.79 27a131.82 131.82 0 0 0 -55.14 6.32l-18.58-23.45-33.43 18.56 10.07 28.16a132 132 0 0 0 -34.54 43.45zm233.38 86.68a88.29 88.29 0 0 1 -109.19 60.58 88.29 88.29 0 0 1 -60.58-109.17 88.29 88.29 0 0 1 109.17-60.57 88.29 88.29 0 0 1 60.6 109.18zm0 0" fill="#759aff"/><path d="m739.41-79a131.9 131.9 0 0 0 6.33 55.14l-23.45 18.61 18.55 33.43 28.16-10.07a131.82 131.82 0 0 0 43.45 34.54l-3.45 29.7 19.33 5.53 19.73-68.88-1-.25a88.3 88.3 0 0 1 -60.55-109.19 88.29 88.29 0 0 1 109.18-60.56l.95.29 19.71-68.88-19.35-5.55-12.79 27a131.82 131.82 0 0 0 -55.14 6.32l-18.58-23.45-33.43 18.56 10.07 28.16a132 132 0 0 0 -34.54 43.45l-29.69-3.45-10.51 36.79zm0 0" fill="#638dff"/><g fill="#8fadff"><path d="m785.95-90.6a88.89 88.89 0 0 1 109.91-61 88.89 88.89 0 0 1 61 109.92 88.89 88.89 0 0 1 -109.92 61 88.89 88.89 0 0 1 -61-109.92zm0 0"/><path d="m846.94 19.32c.32.09.64.16 1 .25l48.9-170.86c-.32-.1-.63-.21-1-.3a88.89 88.89 0 0 0 -109.91 61 88.89 88.89 0 0 0 61 109.92zm0 0"/><path d="m123.07 89.17a70.5 70.5 0 0 0 -30.69-94.6l-63.76 125.74a70.49 70.49 0 0 0 94.45-31.14zm0 0"/></g><path d="m166.45 128.17 13.71-27-19.16-14.06a104.66 104.66 0 0 0 3.36-43.89l21-10.94-9.36-28.83-23.42 3.61a104.48 104.48 0 0 0 -28.64-33.42l7.14-22.64-27.08-13.68-14 19.12a104.47 104.47 0 0 0 -43.89-3.36l-10.93-21.08-28.82 9.46 3.64 23.44a104.59 104.59 0 0 0 -33.46 28.65l-22.61-7.14-13.71 27 19.12 14a104.55 104.55 0 0 0 -3.34 43.95l-21 10.94 9.42 28.82 23.45-3.61a104.61 104.61 0 0 0 28.58 33.43l-7.14 22.61 27 13.71 14-19.12a104.62 104.62 0 0 0 43.89 3.36l10.94 21 28.86-9.38-3.61-23.45a104.55 104.55 0 0 0 33.45-28.67zm-168.71-102.55a70 70 0 1 1 30.78 94.13 70 70 0 0 1 -30.78-94.13zm0 0" fill="#4a6bc4"/><path d="m161 87.11a104.66 104.66 0 0 0 3.36-43.89l21-10.94-9.36-28.83-23.42 3.61a104.48 104.48 0 0 0 -28.64-33.42l7.14-22.64-13.22-6.7-25.7 50.7a70 70 0 0 1 -63.33 124.89l-25.69 50.67 13.22 6.7 14-19.12a104.62 104.62 0 0 0 43.89 3.36l10.94 21 28.81-9.38-3.61-23.45a104.55 104.55 0 0 0 33.45-28.67l22.61 7.14 13.71-27zm0 0" fill="#4666c2"/><path d="m123.07 89.17a70.5 70.5 0 1 1 -31-94.76 70.5 70.5 0 0 1 31 94.76zm0 0" fill="#5778cf"/><path d="m94.18 58a30.62 30.62 0 1 1 -13.47-41.18 30.62 30.62 0 0 1 13.47 41.18zm0 0" fill="#4666c2"/><path d="m94.18 58a30.62 30.62 0 0 0 -13.18-41l-27.68 54.59a30.62 30.62 0 0 0 40.86-13.59zm0 0" fill="#4563b5"/><path d="m-6.29 80.73a70.48 70.48 0 0 0 86.85 44 52.47 52.47 0 0 0 -86.85-44zm0 0" fill="#4666c2"/><path d="m52.33 73.55-23.71 46.76a70.24 70.24 0 0 0 51.95 4.46 52.48 52.48 0 0 0 -28.24-51.22zm0 0" fill="#4563b5"/><path d="m776.94 250.77a76 76 0 0 0 -82.81-68l15.17 151.13a76 76 0 0 0 67.64-83.14zm0 0" fill="#8fadff"/><path d="m839 261-3.26-32.52-25.5-1.62a112.79 112.79 0 0 0 -22.47-41.86l12.75-22.16-25.3-20.69-19.22 16.94a112.6 112.6 0 0 0 -45.42-13.7l-6.58-24.67-32.55 3.28-1.62 25.5a112.58 112.58 0 0 0 -41.83 22.44l-22.16-12.75-20.68 25.3 16.89 19.18a112.72 112.72 0 0 0 -13.7 45.42l-24.67 6.65 3.32 32.52 25.5 1.62a112.68 112.68 0 0 0 22.45 41.79l-12.75 22.16 25.3 20.68 19.19-16.9a112.74 112.74 0 0 0 45.42 13.7l6.63 24.69 32.51-3.26 1.62-25.5a112.75 112.75 0 0 0 41.79-22.45l22.16 12.75 20.68-25.3-16.89-19.24a112.67 112.67 0 0 0 13.7-45.42zm-212.73 4.92a75.47 75.47 0 1 1 82.62 67.56 75.47 75.47 0 0 1 -82.62-67.56zm0 0" fill="#4a6bc4"/><path d="m810.22 226.83a112.79 112.79 0 0 0 -22.45-41.83l12.75-22.16-25.3-20.69-19.22 16.94a112.6 112.6 0 0 0 -45.42-13.7l-6.58-24.67-15.89 1.59 6.11 60.93a75.46 75.46 0 0 1 15.03 150.16l6.11 60.92 15.89-1.59 1.62-25.5a112.75 112.75 0 0 0 41.79-22.45l22.16 12.75 20.68-25.3-16.89-19.23a112.67 112.67 0 0 0 13.7-45.42l24.69-6.58-3.26-32.52zm0 0" fill="#4666c2"/><path d="m776.94 250.77a76 76 0 1 1 -83.18-68 76 76 0 0 1 83.18 68zm0 0" fill="#5778cf"/><path d="m732.6 239.24a33 33 0 1 1 -36.14-29.54 33 33 0 0 1 36.14 29.54zm0 0" fill="#4666c2"/><path d="m732.6 239.24a33 33 0 0 0 -35.77-29.57l6.59 65.66a33 33 0 0 0 29.18-36.09zm0 0" fill="#4563b5"/><path d="m654.62 318.26a76 76 0 0 0 104.38-10.48 56.54 56.54 0 0 0 -104.43 10.48zm0 0" fill="#4666c2"/><path d="m703.66 277.68 5.64 56.23a75.7 75.7 0 0 0 49.7-26.13 56.55 56.55 0 0 0 -55.39-30.1zm0 0" fill="#4563b5"/><path d="m550.45 9.6a89.94 89.94 0 0 0 -108.33-66.05l42.79 174.69a89.93 89.93 0 0 0 65.54-108.64zm0 0" fill="#8fadff"/><path d="m624.85 11.29-9.2-37.57-30.16 2.28a133.52 133.52 0 0 0 -33.23-45.28l11.28-28.08-33.08-20.06-19.69 23a133.29 133.29 0 0 0 -55.5-8.54l-11.88-27.82-37.57 9.2 2.32 30.16a133.27 133.27 0 0 0 -45.27 33.23l-28.1-11.26-20.05 33.08 23 19.69a133.43 133.43 0 0 0 -8.54 55.51l-27.85 11.87 9.2 37.57 30.17-2.27a133.38 133.38 0 0 0 33.23 45.27l-11.27 28.08 33.07 20.06 19.7-23a133.46 133.46 0 0 0 55.5 8.54l11.88 27.82 37.57-9.2-2.32-30.16a133.47 133.47 0 0 0 45.27-33.23l28.09 11.28 20.06-33.08-23-19.69a133.38 133.38 0 0 0 8.52-55.52zm-248.53 41a89.34 89.34 0 1 1 108 65.52 89.33 89.33 0 0 1 -108-65.52zm0 0" fill="#4a6bc4"/><path d="m585.49-24a133.52 133.52 0 0 0 -33.23-45.28l11.28-28.08-33.08-20.06-19.69 23a133.29 133.29 0 0 0 -55.5-8.54l-11.88-27.82-18.39 4.51 17.25 70.4a89.33 89.33 0 0 1 42.5 173.52l17.25 70.4 18.36-4.5-2.32-30.16a133.47 133.47 0 0 0 45.27-33.23l28.09 11.28 20.06-33.08-23-19.69a133.38 133.38 0 0 0 8.54-55.5l27.82-11.88-9.2-37.57zm0 0" fill="#4666c2"/><path d="m550.45 9.6a89.94 89.94 0 1 1 -108.75-66 89.94 89.94 0 0 1 108.75 66zm0 0" fill="#5778cf"/><path d="m496.56 3.43a39.07 39.07 0 1 1 -47.24-28.65 39.07 39.07 0 0 1 47.24 28.65zm0 0" fill="#4666c2"/><path d="m496.56 3.43a39.07 39.07 0 0 0 -46.82-28.75l18.59 75.87a39.07 39.07 0 0 0 28.23-47.12zm0 0" fill="#4563b5"/><path d="m418.23 108.94a89.92 89.92 0 0 0 120.67-29.56 66.94 66.94 0 0 0 -120.67 29.56zm0 0" fill="#4666c2"/><path d="m469 53.26 15.92 65a89.61 89.61 0 0 0 54-38.85 67 67 0 0 0 -69.92-26.15zm0 0" fill="#4563b5"/></g><g clip-path="url(#a)"><path d="m581.57 265-8 8h-97.28l-8-8a16.73 16.73 0 0 0 16.64-16.64v-31.36h80v31.36a16.73 16.73 0 0 0 16.64 16.64z" fill="#c9cdd6"/><path d="m581.57 265-8 8h-48.64v-56h40v31.36a16.73 16.73 0 0 0 16.64 16.64z" fill="#b3b7bf"/><path d="m661.47 25v176l-16 16h-241.07l-16-16v-176z" fill="#575f64"/><path d="m661.47 25v176l-16 16h-120.54v-192z" fill="#32393f"/><path d="m388.4 201h273.07v32h-273.07z" fill="#e6e6e6"/><path d="m524.93 201h136.54v32h-136.54z" fill="#d1d1d1"/><path d="m452.93 265h144v16h-144z" fill="#e6e6e6"/><path d="m524.93 265h72v16h-72z" fill="#d1d1d1"/><path d="m400.76 35.2h248.43v154.03h-248.43z" fill="#ffdd6e"/><path d="m524.93 35.2h124.21v154.03h-124.21z" fill="#e8c758"/><path d="m472.79 73.35h-24.9v10.37h14.54l.1 67.61h10.26v-78zm102 9.8v.34.34.34l.06.33.08.33.09.32.11.32.12.31.14.3.14.29.16.29.17.27.2.26.2.25.21.25.23.23.23.23.25.21.25.2.26.2.27.18.28.16.3.14.29.14.31.12.32.11.32.09.33.08.33.05h.34.34.7.34.35l.34-.05.33-.08.32-.09.32-.11.31-.12.31-.14.29-.14.29-.16.27-.18.27-.2.25-.2.25-.21.23-.23.22-.23.21-.25.2-.25.19-.26.18-.27.17-.29.14-.29.14-.3.11-.31.11-.32.09-.32.08-.33.05-.33v-.34-.34-.69-.34-.34l-.05-.33-.08-.32-.09-.32-.11-.32-.11-.3-.14-.29-.14-.29-.17-.28-.18-.27-.19-.25-.2-.25-.21-.24-.22-.23-.23-.22-.25-.21-.25-.2-.27-.19-.27-.17-.29-.16-.29-.14-.31-.13-.31-.12-.32-.1-.32-.09-.33-.08-.34-.06h-.35-.34-.7-.34-.34l-.33.06-.33.08-.32.09-.32.1-.31.12-.29.13-.3.14-.28.16-.27.17-.26.19-.25.2-.25.21-.23.22-.23.23-.21.24-.2.25-.2.25-.17.27-.16.28-.14.29-.14.29-.12.3-.11.32-.09.32-.08.32-.06.33v.34.34zm1.32 0v-.3-.29-.28-.28l.06-.27.08-.26.09-.26.09-.25.11-.25.12-.24.13-.24.21-.23.14-.22.16-.22.17-.2.18-.2.19-.19.19-.17.21-.16.21-.15.23-.14.22-.14.24-.12.24-.11.24-.1.25-.09.26-.08.26-.07h.27.27.27.57.29.27.27l.26.07.26.08.25.09.25.1.25.11.23.12.23.14.23.14.22.15.21.16.2.17.18.19.19.2.17.2.17.22.15.22.14.22.13.24.12.24.11.25.1.25.09.26.08.26.07.27v.28.28.29.59.29.3.28l-.07.28-.08.27-.09.27-.1.26-.11.26-.12.25-.13.24-.14.23-.15.23-.17.22-.17.21-.19.2-.18.2-.2.17-.21.17-.22.16-.23.15-.23.13-.23.13-.25.11-.25.11-.25.09-.26.08-.26.07-.27.05h-.27-.29-.57-.27-.27l-.27-.05-.26-.07-.26-.08-.25-.09-.24-.11-.24-.11-.24-.13-.22-.13-.23-.15-.21-.16-.21-.17-.19-.17-.19-.2-.18-.2-.17-.21-.16-.22-.14-.19-.14-.23-.13-.24-.12-.25-.11-.26-.09-.26-.09-.27-.08-.27-.06-.28v-.28-.3-.29-.3zm3 3.33h1.24v-2.76h1.2.22.2.17l.14.07.12.07.11.08.08.09.06.09.06.1v.1.11 1.37.18.08.07.05h.05 1.24l-.05-.05v-.06-.06-.05-.11-.15-.4-.63-.29-.26-.13-.12-.12-.12l-.06-.11-.07-.1-.08-.1-.09-.09-.11-.08-.12-.08-.13-.07-.15-.07.19-.07.17-.09.14-.09.13-.09.1-.09.1-.1.08-.11.07-.1.05-.1v-.11-.1-.1-.21-.48-.14-.13-.12-.12l-.06-.1v-.11l-.06-.09-.07-.09-.06-.08-.08-.08-.08-.07-.08-.07-.09-.06-.09-.05-.17-.09-.19-.08h-.17-.19-.17-3.39v6.66zm1.24-5.8h1.54.14.13.13.12.1l.1.07.1.07.08.08.07.08.06.1v.11.11.13.57.1.09.09l-.06.08-.06.08-.08.08-.09.07-.1.07h-.12-.13-.14-1.78v-1.98zm32.12 53.16h-91.29-1.14l-1.12-.09-1.1-.13-1.08-.19-1.06-.24-1-.3-1-.35-1-.38-1-.45-1-.48-.92-.52-.89-.57-.86-.61-.82-.65-.8-.69-.77-.73-.72-.76-.69-.8-.65-.83-.61-.85-.57-.9-.54-.92-.48-.94-.44-1-.39-1-.34-1-.3-1-.24-1.06-.2-1.08-.14-1.11-.08-1.12v-1.14-1.13l.08-1.12.12-1.09.19-1.08.23-1.06.28-1.05.34-1 .38-1 .43-1 .47-1 .51-.93.57-.91.6-.88.63-.84.69-.81.71-.78.75-.74.8-.7.82-.67.85-.62.89-.59.92-.54 1-.5 1-.45 1-.41 1-.36 1.05-.3 1.07-.25 1.09-.21 1.12-.14 1.14-.09h1.15 1.12l1.11.09 1.09.15 1.07.2 1.06.26 1.05.32 1 .36 1 .42 1 .47.95.52.93.56.91.61.88.65.84.7.81.73.79.78.75.81.7.85.67.89.64.92.59 1 .54 1 .5 1 .46 1.05.4 1.07.36 1.1.31 1.12.25 1.15.2 1.18.15 1.19.09 1.21v1.24h-10.33v-.69-.67l-.07-.67-.1-.65-.11-.65-.14-.62-.17-.61-.18-.6-.21-.59-.24-.57-.25-.55-.28-.54-.31-.52-.33-.49-.35-.48-.36-.46-.39-.44-.42-.42-.44-.38-.45-.37-.47-.34-.5-.32-.51-.3-.53-.26-.56-.24-.57-.21-.59-.17-.6-.14-.64-.12-.63-.09h-.67-.68-.68-.66l-.65.09-.62.12-.61.14-.59.17-.57.21-.55.24-.54.26-.51.3-.49.32-.48.34-.45.37-.44.38-.41.42-.39.44-.37.46-.35.48-.33.49-.29.52-.29.54-.26.55-.23.57-.22.59-.19.6-.16.61-.14.62-.11.65-.09.65-.07.67v.67.69.55.54l.09.54.11.52.15.51.16.49.21.49.23.47.25.46.27.45.31.44.33.41.35.41.36.39.39.38.41.35.42.34.44.31.46.31.47.29.48.26.49.24.5.23.51.2.51.19.54.15.54.15.54.11.55.09.55.06h.56.55 91.24v10.27zm0 16.25h-91.21-1.94l-1.91-.15-1.9-.22-1.86-.32-1.84-.39-1.79-.48-1.77-.57-1.73-.64-1.69-.72-1.65-.8-1.6-.86-1.58-.94-1.5-1-1.44-1.08-1.39-1.14-1.33-1.21-1.27-1.26-1.22-1.33-1.14-1.39-1.07-1.43-1-1.5-.93-1.54-.85-1.6-.78-1.64-.69-1.68-.6-1.73-.53-1.78-.44-1.81-.34-1.86-.24-1.88-.15-1.92-.05-2 .05-2 .13-1.94.24-1.93.32-1.9.4-1.88.49-1.85.58-1.82.66-1.8.73-1.74.81-1.71.9-1.66 1-1.62 1-1.57 1.11-1.51 1.17-1.47 1.25-1.4 1.3-1.34 1.37-1.28 1.43-1.2 1.49-1.14 1.53-1.04 1.6-1 1.66-.91 1.7-.82 1.76-.73 1.8-.66 1.85-.56 1.89-.46 1.93-.36 2-.27 2-.15 2-.05h2.06l2 .15 2 .25 1.94.35 1.89.44 1.86.54 1.81.62 1.75.71 1.72.79 1.65.88 1.61 1 1.54 1 1.5 1.11 1.48 1.2 1.37 1.24 1.31 1.27 1.25 1.38 1.18 1.44 1.1 1.5 1.05 1.55 1 1.61.9 1.67.82 1.71.73 1.76.67 1.8.57 1.85.5 1.89.4 1.93.32 2 .24 2 .13 2 .06 2.06h-10.29l-.06-1.42-.1-1.4-.15-1.33-.23-1.39-.27-1.37-.34-1.36-.38-1.33-.45-1.31-.5-1.28-.56-1.27-.6-1.23-.67-1.2-.72-1.16-.77-1.13-.82-1.1-.87-1.05-.93-1-1-1-1-.91-1.07-.85-1.13-.8-1.17-.74-1.22-.68-1.3-.6-1.31-.56-1.36-.48-1.4-.43-1.46-.34-1.5-.27-1.53-.2-1.59-.11h-1.63-1.63l-1.59.15-1.54.21-1.5.28-1.46.36-1.41.44-1.37.5-1.31.57-1.27.64-1.23.7-1.17.75-1.13.81-1.07.86-1 .92-1 1-.93 1-.86 1.05-.75 1.07-.77 1.14-.7 1.17-.67 1.19-.6 1.23-.55 1.26-.49 1.28-.44 1.3-.37 1.31-.33 1.34-.26 1.35-.21 1.36-.15 1.37-.09 1.37v1.38 1.24l.1 1.24.18 1.24.23 1.22.3 1.22.36 1.21.43 1.19.48 1.17.54 1.15.6 1.14.66 1.11.7 1.08.77 1 .81 1 .87 1 .91.95 1 .92 1 .87 1 .82 1.08.79 1.13.73 1.17.68 1.21.64 1.25.57 1.28.52 1.31.45 1.36.39 1.38.33 1.41.25 1.44.19 1.47.12h1.49 91.24v10.37zm-154.47-60.67h-20.56v10.37h10.36v51.54h10.26z" fill="#da251d" fill-rule="evenodd"/><path d="m65.09 54.72h159.16v225.28h-159.16z" fill="#b5efff"/><path d="m140.37 54.72h83.89v225.28h-83.89z" fill="#80dbff"/><path d="m35.38 25h159.16v224.78h-159.16z" fill="#fff"/><path d="m116.08 25h78.46v224.78h-78.46z" fill="#dce1eb"/><path d="m108 88.87a32.66 32.66 0 1 1 -32.66-32.66 32.66 32.66 0 0 1 32.66 32.66zm0 0" fill="#b5efff"/><path d="m75.34 56.21v65.31a32.66 32.66 0 0 0 0-65.31zm0 0" fill="#80dbff"/><path d="m89.53 82a14.19 14.19 0 1 1 -14.19-14.14 14.18 14.18 0 0 1 14.19 14.14zm0 0" fill="#faa68e"/><path d="m75.34 67.86v28.36a14.19 14.19 0 1 0 0-28.37zm0 0" fill="#d47f6c"/><path d="m52.79 112.48a32.65 32.65 0 0 0 45.11 0 24.3 24.3 0 0 0 -45.11 0zm0 0" fill="#ff7045"/><path d="m97.9 112.48a24.31 24.31 0 0 0 -22.56-15.25v24.29a32.53 32.53 0 0 0 22.56-9zm0 0" fill="#de4726"/><path d="m54.73 143.76h120.46v20.4h-120.46z" fill="#707789"/><g fill="#555a66"><path d="m116.08 95.01h59.11v11.94h-59.11z"/><path d="m116.08 75.01h59.11v11.94h-59.11z"/><path d="m116.08 143.76h59.11v20.4h-59.11z"/></g><path d="m54.73 174.89h120.46v20.4h-120.46z" fill="#707789"/><path d="m54.73 206.03h120.46v20.4h-120.46z" fill="#707789"/><path d="m116.08 174.89h59.11v20.4h-59.11z" fill="#555a66"/><path d="m116.08 206.03h59.11v20.4h-59.11z" fill="#555a66"/><g fill="#f4821f"><path d="m124 38.44c.62-1.59 1.52-2.6 4.78-2.6 2 0 3.77.24 4.78 2.6l7.71 18.62h-7.1l-1.63-4.34h-7.54l-1.63 4.34h-7.16zm2.58 9.5h4.42l-2-5.29c-.07-.15-.18-.44-.22-.44s-.22.29-.29.44l-1.92 5.29z"/><path d="m151.1 50.32c.11.33.26.44.4.44s.22-.11.33-.44l5-14.19h7.17l-7.25 17.78c-.73 1.81-1.92 3.37-5.22 3.37s-4.56-1.56-5.29-3.37l-7.27-17.78h7.21l5 14.19z"/><path d="m167.19 56.99v-20.91h6.81v20.91z"/></g><circle cx="828.64" cy="199" fill="#32393f" r="127.36"/><path d="m828.64 85.23a113.78 113.78 0 1 1 -113.78 113.77 113.77 113.77 0 0 1 113.78-113.77z" fill="#fff"/><g clip-path="url(#b)"><path d="m948 200a118.5 118.5 0 1 1 -118.5-118.5 118.5 118.5 0 0 1 118.5 118.5zm0 0" fill="#fff"/></g><path d="m814.94 110a79.36 79.36 0 1 0 79.36 79.36 79.63 79.63 0 0 0 -79.36-79.36zm0 0" fill="#00abe9"/><path d="m894.3 189.36a79.63 79.63 0 0 1 -79.36 79.36v-158.72a79.63 79.63 0 0 1 79.36 79.36zm0 0" fill="#0095ff"/><path d="m870.74 189.36a55.8 55.8 0 1 1 -55.8-55.8 55.84 55.84 0 0 1 55.8 55.8zm0 0" fill="#e7e7e7"/><path d="m870.74 189.36a55.84 55.84 0 0 1 -55.8 55.8v-111.6a55.84 55.84 0 0 1 55.8 55.8zm0 0" fill="#d3d3d8"/><path d="m810.29 133.56h9.3v13.95h-9.3z" fill="#babac0"/><path d="m856.79 184.71h13.95v9.3h-13.95z" fill="#a1a1a7"/><path d="m810.29 231.21h9.3v13.95h-9.3z" fill="#babac0"/><path d="m847.81 163.06-6.58-6.57 9.88-9.88 6.57 6.58zm0 0" fill="#a1a1a7"/><path d="m778.77 232.1-6.58-6.57 9.88-9.88 6.57 6.58zm0 0" fill="#babac0"/><path d="m782.07 163.07-9.88-9.88 6.58-6.58 9.88 9.88zm0 0" fill="#babac0"/><path d="m851.11 232.1-9.88-9.88 6.58-6.58 9.88 9.88zm0 0" fill="#a1a1a7"/><path d="m759.14 184.71h13.95v9.3h-13.95z" fill="#babac0"/><path d="m842.84 184.71v9.29h-32.55v-32.54h9.3v23.25zm0 0" fill="#384949"/><path d="m814.94 133.56h4.65v13.95h-4.65z" fill="#a1a1a7"/><path d="m814.94 231.21h4.65v13.95h-4.65z" fill="#a1a1a7"/><path d="m842.84 184.71v9.29h-27.9v-32.54h4.65v23.25zm0 0" fill="#293939"/><circle cx="870.9" cy="231.93" fill="#ffdd6e" r="50.52"/><path d="m840.12 252.73h11.34v16.7a1.56 1.56 0 0 0 1.62 1.62h8.45a1.6 1.6 0 0 0 1.14-.46 1.53 1.53 0 0 0 .48-1.16v-16.7h25.56a1.56 1.56 0 0 0 1.62-1.62v-6.48a1.56 1.56 0 0 0 -1.62-1.62h-25.56v-6h17.21q10.12 0 16.53-6.17t6.4-15.94q0-9.77-6.4-15.94t-16.53-6.17h-27.28a1.56 1.56 0 0 0 -1.62 1.62v31.84h-11.34a1.53 1.53 0 0 0 -1.16.48 1.6 1.6 0 0 0 -.46 1.14v7.54a1.56 1.56 0 0 0 1.62 1.62h11.34v6h-11.34a1.56 1.56 0 0 0 -1.62 1.62v6.48a1.56 1.56 0 0 0 1.62 1.62zm23-49.14h16.2a12 12 0 0 1 8.65 3.14 11.86 11.86 0 0 1 0 16.4 12 12 0 0 1 -8.65 3.14h-16.2z" fill="#e63c3c"/><path d="m344.69 233.72a54.31 54.31 0 0 1 -95.9 3.27l8.41-19.93 1.25-.15 6.23-24 8.41 4a54.35 54.35 0 0 0 45.46 0l8.41-4 6.23 24 1.25.15zm0 0" fill="#f6a96c"/><path d="m412.57 272.22a56.59 56.59 0 0 0 -14.17-34.92c-8.1-8.72-19.93-14.48-33.63-16.35l-30.36-3.89-2 5.92a38.9 38.9 0 0 1 -73.17 0l-2-5.92-30.52 3.89c-13.54 1.87-25.38 7.63-33.32 16.35-8.56 9.34-13.54 22-14.32 71.05l-.47 8.25h234.27zm0 0" fill="#de4726"/><path d="m365.86 123.6v23.87a69.94 69.94 0 0 1 -40.79 63.53 68.79 68.79 0 0 1 -58.54 0 69.94 69.94 0 0 1 -40.79-63.52v-23.88l24.14-15.6 80.68-30.42 14 30.42zm0 0" fill="#fed2a4"/><path d="m325.07 211a67.59 67.59 0 0 1 -29.27 6.54v-112.78l15.57-15.57 18.84 18.81h14.32l21.33 15.57v23.87a69.94 69.94 0 0 1 -40.79 63.56zm0 0" fill="#fed2a4"/><path d="m225.9 147.68-7.28-76.45 28.21-26.39 4.55 7.28 28.21-23.66.91 11.83 43.69-17.29.91 21.84 33.67-7.28-4.55 22.75 19.11 11.83-7.28 75.54-21.84-40s7.28 13.65-13.65-23.66c-23.66 25.48-81 23.66-81 23.66z" fill="#cc6d3d"/><g clip-path="url(#c)"><path d="m292.83 230.76h136v81.24h-136z" fill="#b5efff"/><path d="m360.85 230.76h68v81.24h-68z" fill="#80dbff"/><path d="m345.31 286.93-19.07-15.93 19.07-15.89 3.53 4.23-14 11.66 14 11.66z" fill="#2864f0"/><path d="m376.38 286.93-3.53-4.23 14-11.66-14-11.66 3.53-4.23 19.07 15.85z" fill="#27488f"/><path d="m369 252.53-8.15 28.54-2.87 10-5.29-1.54 8.16-28.53 2.87-10z" fill="#2864f0"/><path d="m369 252.53-8.15 28.54v-20.07l2.87-10z" fill="#27488f"/></g></g></svg>