<svg width="64" height="64" viewBox="0 0 64 64" fill="none" xmlns="http://www.w3.org/2000/svg">
<circle cx="32" cy="32" r="32" fill="white"/>
<g clip-path="url(#clip0_4_35)">
<mask id="mask0_4_35" style="mask-type:luminance" maskUnits="userSpaceOnUse" x="-194" y="-35" width="455" height="462">
<path d="M-193.708 426.785H260.788V-34.9711H-193.708V426.785Z" fill="white"/>
</mask>
<g mask="url(#mask0_4_35)">
<path d="M32.907 40.6197C31.9794 40.5569 30.9097 40.3916 30.066 40.1434C29.908 40.0969 29.2537 39.8525 29.0872 39.775C26.15 38.3927 24.1038 35.3752 24.1038 31.8744C24.1038 27.0728 27.9488 23.1618 32.678 23.1618C37.3652 23.1618 41.1842 27.0061 41.2499 31.7534H44.3474C44.2817 25.2717 39.0739 20.0186 32.678 20.0186C26.2439 20.0186 21.0071 25.336 21.0071 31.8744C21.0071 36.382 23.5022 40.3024 27.1556 42.3053C27.8152 42.6598 28.762 43.0251 29.0834 43.1252C30.1248 43.4401 31.4029 43.6496 32.5406 43.7372C32.9269 43.7667 34.276 43.7822 34.6692 43.7838H56V40.6492H34.7051C34.4218 40.6492 33.1842 40.6383 32.907 40.6197ZM34.7051 35.6979C34.4799 35.6979 33.3018 35.6901 33.0842 35.6715C32.7154 35.6397 32.181 35.5838 31.8374 35.5039C31.4495 35.3984 31.0853 35.2588 30.9212 35.1673C29.7706 34.5351 28.9865 33.2986 28.9865 31.8744C28.9865 29.8025 30.6379 28.1224 32.678 28.1224C34.6753 28.1224 36.2993 29.7366 36.3642 31.7534H39.3403C39.2777 28.0688 36.3214 25.0995 32.678 25.0995C28.9941 25.0995 26.008 28.1325 26.008 31.8744C26.008 34.5134 27.4969 36.7924 29.6652 37.9086C29.9989 38.1072 30.6265 38.3151 30.8051 38.3624C31.4174 38.5261 32.2397 38.6378 32.907 38.6874C33.1537 38.7084 34.3615 38.7177 34.6165 38.7192V38.7239H55.9992V35.6979H34.7051ZM19.0983 43.7721H15.9802V23.1687H11.4236V20H19.0983V43.7721ZM8 24.7519V27.7989H11.4236V43.7721H14.4195V24.7519H8Z" fill="#D91920"/>
</g>
</g>
<defs>
<clipPath id="clip0_4_35">
<rect width="48" height="23.7838" fill="white" transform="translate(8 20)"/>
</clipPath>
</defs>
</svg>
