<svg width="64" height="64" viewBox="0 0 64 64" fill="none" xmlns="http://www.w3.org/2000/svg">
<circle cx="32" cy="32" r="32" fill="white"/>
<g clip-path="url(#clip0_5_63)">
<mask id="mask0_5_63" style="mask-type:luminance" maskUnits="userSpaceOnUse" x="-194" y="-35" width="455" height="462">
<path d="M-193.708 426.785H260.788V-34.9711H-193.708V426.785Z" fill="white"/>
</mask>
<g mask="url(#mask0_5_63)">
<path d="M32.907 40.6197C31.9794 40.5569 30.9097 40.3916 30.066 40.1434C29.908 40.0969 29.2537 39.8525 29.0872 39.775C26.15 38.3927 24.1038 35.3752 24.1038 31.8744C24.1038 27.0728 27.9488 23.1618 32.678 23.1618C37.3652 23.1618 41.1842 27.0061 41.2499 31.7534H44.3474C44.2817 25.2717 39.0739 20.0186 32.678 20.0186C26.2439 20.0186 21.0071 25.336 21.0071 31.8744C21.0071 36.382 23.5022 40.3024 27.1556 42.3053C27.8152 42.6598 28.762 43.0251 29.0834 43.1252C30.1248 43.4401 31.4029 43.6496 32.5406 43.7372C32.9269 43.7667 34.276 43.7822 34.6692 43.7838H56V40.6492H34.7051C34.4218 40.6492 33.1842 40.6383 32.907 40.6197ZM34.7051 35.6979C34.4799 35.6979 33.3018 35.6901 33.0842 35.6715C32.7154 35.6397 32.181 35.5838 31.8374 35.5039C31.4495 35.3984 31.0853 35.2588 30.9212 35.1673C29.7706 34.5351 28.9865 33.2986 28.9865 31.8744C28.9865 29.8025 30.6379 28.1224 32.678 28.1224C34.6753 28.1224 36.2993 29.7366 36.3642 31.7534H39.3403C39.2777 28.0688 36.3214 25.0995 32.678 25.0995C28.9941 25.0995 26.008 28.1325 26.008 31.8744C26.008 34.5134 27.4969 36.7924 29.6652 37.9086C29.9989 38.1072 30.6265 38.3151 30.8051 38.3624C31.4174 38.5261 32.2397 38.6378 32.907 38.6874C33.1537 38.7084 34.3615 38.7177 34.6165 38.7192V38.7239H55.9992V35.6979H34.7051ZM19.0983 43.7721H15.9802V23.1687H11.4236V20H19.0983V43.7721ZM8 24.7519V27.7989H11.4236V43.7721H14.4195V24.7519H8Z" fill="#D91920"/>
</g>
<rect x="10" y="22" width="9" height="5" fill="#D91920"/>
<rect x="13" y="27" width="5" height="17" fill="#D91920"/>
<path d="M31.0777 24.2722C30.7235 24.2722 30.0384 24.1309 29.8025 24.4611C29.0323 25.5393 28.1384 26.4634 27.3087 27.4933C27.0593 27.8029 26.8346 28.146 26.5719 28.438C26.4913 28.5275 25.911 29.3109 25.8965 29.2314C25.7204 28.263 26.3155 26.8826 26.7844 26.067C27.0016 25.6894 27.2586 25.3402 27.4882 24.9712C27.4994 24.9532 27.8094 24.5726 27.8094 24.6312C27.8094 24.772 27.6 25.121 27.5401 25.2546C27.3066 25.7755 26.993 26.2909 26.6994 26.7802C26.2018 27.6095 25.825 28.2961 25.5517 29.222C25.326 29.9869 25.2967 30.6092 25.2967 31.4088C25.2967 32.1746 25.6386 32.888 25.7218 33.6569C25.766 34.0659 25.9361 34.4214 26.024 34.8235C26.0789 35.0741 26.2037 35.326 26.2319 35.5792C26.2442 35.6907 26.429 35.7623 26.4869 35.872C26.7177 36.3094 26.8345 36.692 27.1717 37.0292C27.501 37.3585 27.8487 37.6568 28.1872 37.9596C29.2891 38.9456 31.1521 39.3557 32.5655 39.6174C34.4561 39.9675 36.6977 40.1806 38.5779 39.6599C40.5231 39.1213 42.4259 39.4899 44.3873 39.4899C45.5583 39.4899 46.704 39.5139 47.8446 39.7261C49.4 40.0154 51.0976 39.83 52.6715 39.83" stroke="#D91920" stroke-width="3" stroke-linecap="round"/>
<path d="M31.4178 23.8471C32.9094 23.8471 34.3263 23.9166 35.711 24.532C36.4865 24.8766 37.2295 25.2703 37.9356 25.7222C38.4261 26.0361 39.2392 26.2629 39.2392 26.9077C39.2392 27.1826 39.2791 27.3858 39.0502 27.5689C38.7772 27.7874 38.3756 27.0702 38.7716 27.2902C39.0241 27.4305 39.0957 27.6728 39.2392 27.9279C39.4175 28.2449 39.6578 28.4791 39.754 28.8158C39.8508 29.1547 40.0043 29.3429 40.0043 29.7132C40.0043 30.1458 40.0222 29.9056 40.3444 29.7982" stroke="#D91920" stroke-width="3" stroke-linecap="round"/>
<path d="M54.2585 38.3439C54.2585 39.1108 54.3045 41.4109 54.3045 40.644" stroke="#D91920" stroke-width="3" stroke-linecap="round"/>
<rect x="55" y="36" width="1" height="7" fill="#D91920"/>
<rect x="37" y="30" width="7" height="2" fill="#D91920"/>
</g>
<defs>
<clipPath id="clip0_5_63">
<rect width="48" height="23.7838" fill="white" transform="translate(8 20)"/>
</clipPath>
</defs>
</svg>
