<svg width="222" height="110" viewBox="0 0 222 110" fill="none" xmlns="http://www.w3.org/2000/svg">
<g clip-path="url(#clip0_2_18)">
<mask id="mask0_2_18" style="mask-type:luminance" maskUnits="userSpaceOnUse" x="-933" y="-255" width="2103" height="2137">
<path d="M-932.9 1881.38H1169.14V-254.242H-932.9V1881.38Z" fill="white"/>
</mask>
<g mask="url(#mask0_2_18)">
<path d="M115.195 95.3661C110.905 95.0755 105.957 94.3113 102.055 93.1633C101.324 92.948 98.2982 91.8179 97.5284 91.4592C83.9438 85.066 74.4802 71.1102 74.4802 54.9193C74.4802 32.7119 92.2634 14.6231 114.136 14.6231C135.814 14.6231 153.477 32.4034 153.781 54.3596H168.107C167.803 24.3815 143.717 0.0860963 114.136 0.0860963C84.3782 0.0860963 60.1576 24.6792 60.1576 54.9193C60.1576 75.7669 71.6976 93.8988 88.5944 103.162C91.6454 104.802 96.0241 106.491 97.5107 106.954C102.327 108.411 108.239 109.379 113.5 109.785C115.287 109.921 121.526 109.993 123.345 110H222V95.5024H123.511C122.201 95.5024 116.477 95.4522 115.195 95.3661ZM123.511 72.6027C122.469 72.6027 117.021 72.5668 116.014 72.4807C114.309 72.3336 111.837 72.0753 110.248 71.7057C108.454 71.2178 106.77 70.5721 106.01 70.1487C100.689 67.2248 97.0623 61.5061 97.0623 54.9193C97.0623 45.3367 104.7 37.566 114.136 37.566C123.373 37.566 130.884 45.0318 131.184 54.3596H144.949C144.659 37.3184 130.987 23.585 114.136 23.585C97.0976 23.585 83.287 37.6126 83.287 54.9193C83.287 67.1244 90.1729 77.6648 100.202 82.8274C101.745 83.7458 104.647 84.7073 105.474 84.9261C108.306 85.6831 112.109 86.1997 115.195 86.4293C116.336 86.5262 121.922 86.5693 123.101 86.5764V86.598H221.996V72.6027H123.511ZM51.3296 109.946H36.9081V14.6554H15.8339V-7.13492e-06H51.3296V109.946ZM-6.10352e-05 21.9778V36.0699H15.8339V109.946H29.6903V21.9778H-6.10352e-05Z" fill="#D91920"/>
</g>
</g>
<defs>
<clipPath id="clip0_2_18">
<rect width="222" height="110" fill="white"/>
</clipPath>
</defs>
</svg>
