<svg width="36" height="32" viewBox="0 0 36 32" fill="none" xmlns="http://www.w3.org/2000/svg">
<path d="M32.9879 0.00327645C32.548 0.035286 32.1161 0.138504 31.7092 0.308902H31.7038C31.3132 0.463771 29.4561 1.24497 26.6328 2.4291L16.5156 6.69005C9.25599 9.74631 2.11969 12.756 2.11969 12.756L2.20466 12.7231C2.20466 12.7231 1.71265 12.8848 1.1987 13.237C0.881188 13.4391 0.607969 13.7034 0.395574 14.0141C0.143398 14.3842 -0.0594389 14.9502 0.0159398 15.5354C0.139287 16.5249 0.780691 17.1183 1.24119 17.4459C1.70716 17.7776 2.15121 17.9324 2.15121 17.9324H2.16218L8.85443 20.1869C9.15458 21.1504 10.8938 26.8682 11.3118 28.1853C11.5585 28.972 11.7983 29.464 12.0985 29.8395C12.2437 30.0314 12.4137 30.1918 12.6179 30.3206C12.724 30.3823 12.8372 30.4311 12.955 30.4659L12.8865 30.4494C12.9071 30.4549 12.9235 30.4713 12.9386 30.4768C12.9934 30.4919 13.0304 30.4974 13.1003 30.5083C14.1597 30.829 15.0108 30.1712 15.0108 30.1712L15.0588 30.1328L19.01 26.5352L25.6324 31.6157L25.7831 31.6801C27.1632 32.2859 28.5612 31.9488 29.2999 31.354C30.0441 30.755 30.3332 29.9889 30.3332 29.9889L30.3812 29.8656L35.4987 3.64886C35.644 3.00198 35.681 2.39621 35.5207 1.80825C35.3553 1.21321 34.9735 0.70143 34.4503 0.373317C34.0109 0.106223 33.5015 -0.022697 32.9879 0.00327645ZM32.8495 2.81285C32.844 2.89919 32.8605 2.88959 32.8221 3.05543V3.0705L27.7526 29.0145C27.7306 29.0515 27.6936 29.1323 27.5922 29.2132C27.4853 29.2982 27.4003 29.3516 26.9549 29.1748L18.8551 22.965L13.9624 27.4247L14.9903 20.8599L28.224 8.52518C28.7695 8.01809 28.5872 7.91118 28.5872 7.91118C28.6256 7.28897 27.7635 7.72891 27.7635 7.72891L11.076 18.0667L11.0706 18.0393L3.0722 15.3463V15.3408L3.05165 15.3367C3.06567 15.332 3.0794 15.3265 3.09276 15.3202L3.13662 15.2983L3.1791 15.2832C3.1791 15.2832 10.3209 12.2736 17.5805 9.21729C21.2152 7.68642 24.8772 6.14458 27.6936 4.95497C29.3639 4.2519 31.036 3.55293 32.7097 2.85807C32.8221 2.81422 32.7687 2.81285 32.8495 2.81285Z" fill="black"/>
</svg>
