<svg width="48" height="30" viewBox="0 0 48 30" fill="none" xmlns="http://www.w3.org/2000/svg">
<path fill-rule="evenodd" clip-rule="evenodd" d="M46.6762 24.4202C45.5796 22.2118 44.1346 20.1944 42.3966 18.4453C41.8153 17.7884 41.2067 17.1563 40.5723 16.5505L40.4957 16.4759C40.2602 16.2471 40.0277 16.0153 39.7982 15.7804C42.1741 12.4767 44.2071 8.93949 45.8659 5.22361L45.9324 5.07444L45.9787 4.91721C46.1985 4.18547 46.4484 2.79456 45.5615 1.53669C44.6422 0.238502 43.1727 0.00466642 42.187 0.00466642H37.6574C36.709 -0.0385544 35.7712 0.219348 34.9783 0.741464C34.1853 1.26358 33.5779 2.02315 33.2428 2.91147C32.268 5.23297 31.0475 7.44346 29.6023 9.5052V4.19756C29.6023 3.51219 29.5377 2.36317 28.802 1.39558C27.9231 0.23447 26.6511 0.00466642 25.7682 0.00466642H18.5798C17.6418 -0.0169163 16.7314 0.323087 16.0372 0.954266C15.3429 1.58544 14.9181 2.45944 14.8505 3.39527L14.8445 3.48598V3.57669C14.8445 4.55436 15.2315 5.27602 15.5419 5.72958C15.681 5.93318 15.8282 6.11863 15.9229 6.23555L15.9431 6.26176C16.0439 6.38674 16.1104 6.46939 16.1769 6.56211C16.3543 6.79998 16.6063 7.17089 16.6789 8.12639V11.0957C15.2359 8.67937 14.0527 6.1171 13.1492 3.45171L13.133 3.40736L13.1169 3.36503C12.871 2.72199 12.4779 1.78665 11.6897 1.07305C10.7705 0.236486 9.68196 0.00466642 8.6922 0.00466642H4.09614C3.09428 0.00466642 1.8868 0.238502 0.985734 1.18795C0.100791 2.12329 0 3.24408 0 3.83673V4.10685L0.0564428 4.36891C1.32903 10.2768 3.95147 15.8101 7.71856 20.5357C9.44082 23.2517 11.779 25.5234 14.5434 27.1667C17.3078 28.81 20.4206 29.7786 23.6294 29.994L23.712 30H23.7967C25.2602 30 26.7862 29.873 27.9332 29.109C29.4793 28.0769 29.6023 26.4945 29.6023 25.7043V23.4103C29.9994 23.7328 30.4912 24.1642 31.094 24.7448C31.8237 25.4745 32.4042 26.1075 32.9021 26.6598L33.1682 26.9541C33.5553 27.3855 33.9363 27.8108 34.283 28.1596C34.7184 28.597 35.2566 29.0788 35.9299 29.4356C36.6616 29.8206 37.4297 29.996 38.2441 29.996H42.8421C43.8117 29.996 45.2006 29.7662 46.1783 28.6333C47.2427 27.3996 47.162 25.8857 46.8274 24.7992L46.7669 24.6037L46.6762 24.4202ZM35.1457 24.6339C34.521 23.9355 33.8777 23.2539 33.2166 22.5899L33.2106 22.5838C30.4751 19.9471 29.1991 19.4895 28.296 19.4895C27.8142 19.4895 27.2841 19.542 26.9394 19.9733C26.7842 20.1791 26.6824 20.4201 26.643 20.6748C26.5944 20.9706 26.5728 21.2702 26.5785 21.5699V25.7043C26.5785 26.2183 26.4939 26.434 26.256 26.5913C25.9395 26.8029 25.2642 26.9743 23.8148 26.9743C21.0617 26.7869 18.3923 25.9488 16.0261 24.5288C13.6599 23.1089 11.6646 21.1476 10.2041 18.8062L10.1879 18.78L10.1678 18.7558C6.65847 14.3878 4.21274 9.2638 3.02372 3.78835C3.03179 3.5263 3.08823 3.36705 3.18096 3.27029C3.2757 3.1695 3.50752 3.02839 4.09614 3.02839H8.6922C9.2022 3.02839 9.46829 3.14128 9.65979 3.31262C9.87346 3.51017 10.063 3.84278 10.2887 4.43543C11.4176 7.75346 12.9415 10.8578 14.3869 13.1377C15.1085 14.2787 15.8181 15.2281 16.4591 15.8994C16.7796 16.234 17.0921 16.5122 17.3925 16.7097C17.6807 16.8992 18.0093 17.0504 18.348 17.0504C18.5253 17.0504 18.733 17.0302 18.9325 16.9436C19.1481 16.8484 19.3255 16.6837 19.4365 16.4759C19.6441 16.0969 19.7026 15.5385 19.7026 14.8068V8.00745C19.5957 6.35852 19.0978 5.42923 18.614 4.77005C18.5161 4.63821 18.4152 4.50849 18.3117 4.381L18.2855 4.34875C18.1995 4.24434 18.1175 4.13675 18.0395 4.02622C17.9403 3.90295 17.8806 3.7526 17.8682 3.59483C17.884 3.43465 17.9604 3.28657 18.0819 3.18089C18.2033 3.07522 18.3605 3.01994 18.5213 3.02637H25.7682C26.1834 3.02637 26.3225 3.12717 26.3931 3.22191C26.4939 3.35294 26.5785 3.62507 26.5785 4.19756V13.3252C26.5785 14.4097 27.0784 15.1434 27.8041 15.1434C28.6387 15.1434 29.2414 14.6375 30.2937 13.5852L30.3118 13.5651L30.3279 13.5469C32.6884 10.6689 34.617 7.46233 36.0529 4.02823L36.0609 4.00404C36.1688 3.70064 36.373 3.44085 36.6423 3.26433C36.9117 3.08781 37.2314 3.00424 37.5526 3.02637H42.189C42.8179 3.02637 43.0236 3.18764 43.0921 3.28238C43.1626 3.38317 43.213 3.59887 43.0921 4.02219C41.4363 7.72394 39.3893 11.238 36.9862 14.5044L36.9701 14.5286C36.7382 14.8854 36.4822 15.2805 36.4459 15.7321C36.4056 16.2199 36.6153 16.6614 36.9842 17.1371C37.2523 17.5322 37.8066 18.0744 38.369 18.6248L38.4214 18.6772C39.0101 19.2537 39.6491 19.8786 40.1611 20.4833L40.1752 20.4974L40.1893 20.5136C41.7161 22.0365 42.9858 23.797 43.9488 25.7265C44.102 26.2506 44.0093 26.5207 43.8883 26.6598C43.7492 26.8211 43.4368 26.9722 42.8441 26.9722H38.2441C37.9305 26.9799 37.6203 26.907 37.343 26.7606C37.0031 26.5629 36.6947 26.3156 36.4278 26.0268C36.1395 25.7386 35.8271 25.3898 35.4441 24.9645L35.1478 24.6339H35.1457Z" fill="black"/>
</svg>
